<?xml version="1.0" encoding="utf-8"?>
<!-- Generator: Adobe Illustrator 20.1.0, SVG Export Plug-In . SVG Version: 6.00 Build 0)  -->
<svg version="1.1" id="Capa_1" xmlns="http://www.w3.org/2000/svg" xmlns:xlink="http://www.w3.org/1999/xlink" x="0px" y="0px"
	 viewBox="0 0 24 24" style="enable-background:new 0 0 24 24;" xml:space="preserve">
<style type="text/css">
	.st0{fill:#FFFFFF;}
</style>
<g>
	<g>
		<path class="st0" d="M15.4,15.6c-0.3,0-0.5,0.2-0.7,0.4v0c0-0.6-0.4-1-0.9-1c-0.3,0-0.6,0.2-0.8,0.5C13,15.2,12.7,15,12.4,15
			c-0.3,0-0.5,0.1-0.7,0.4v-3.1c0-0.6-0.4-1-0.9-1s-0.9,0.4-0.9,1v6.1l-0.4-0.8C9.4,17.1,9.1,17,8.8,17c-0.1,0-0.3,0-0.4,0.1
			C7.9,17.3,7.8,18,8,18.4c0,0,2,4.3,2.4,4.7c0.3,0.4,0.7,0.8,1.2,0.8h3c0.9,0,1.6-0.9,1.6-1.9v-5.6C16.2,16,15.9,15.6,15.4,15.6z"
			/>
		<path class="st0" d="M18,0.3H6.1c-0.7,0-1.3,0.6-1.3,1.3v19.4c0,0.7,0.6,1.3,1.3,1.3h2.2c0,0,0.4,0,0.3-0.4c-0.3-0.6-0.7-1.4-1-2
			c-0.1-0.3-0.5-0.3-0.5-0.3H6.3c-0.2,0-0.3-0.1-0.3-0.3V3.3C6,3.1,6.1,3,6.3,3h11.6c0.2,0,0.3,0.1,0.3,0.3v16.1
			c0,0.2-0.1,0.3-0.3,0.3h-0.3c0,0-0.4,0-0.4,0.5c0,0.4,0,1.6,0,1.6c0,0.5,0.5,0.5,0.5,0.5H18c0.7,0,1.3-0.6,1.3-1.3V1.6
			C19.3,0.9,18.7,0.3,18,0.3z M13.5,2.2h-2.9c-0.1,0-0.3-0.1-0.3-0.3c0-0.1,0.1-0.3,0.3-0.3h2.9c0.1,0,0.3,0.1,0.3,0.3
			C13.8,2.1,13.7,2.2,13.5,2.2z"/>
	</g>
</g>
</svg>
